<svg width="32" height="24" viewBox="0 0 32 24" fill="none" xmlns="http://www.w3.org/2000/svg">
<mask id="mask0_311_7355" style="mask-type:alpha" maskUnits="userSpaceOnUse" x="0" y="0" width="32" height="24">
<rect width="32" height="24" fill="white"/>
</mask>
<g mask="url(#mask0_311_7355)">
<path fill-rule="evenodd" clip-rule="evenodd" d="M0 16H32V24H0V16Z" fill="#14DC5A"/>
<path fill-rule="evenodd" clip-rule="evenodd" d="M0 0H32V10H0V0Z" fill="#0099B5"/>
<path d="M-2 9.5H-2.5V10V16V16.5H-2H34H34.5V16V10V9.5H34H-2Z" fill="#F7FCFF" stroke="#C51918"/>
<path fill-rule="evenodd" clip-rule="evenodd" d="M14.5412 3.00662L13.8682 3.38058L14.0604 2.62053L13.4157 2.06202H14.2578L14.5402 1.34277L14.8714 2.06202H15.5893L15.0252 2.62053L15.2964 3.38058L14.5412 3.00662ZM10.9331 5.29747L11.6062 4.9235L12.3614 5.29747L12.0902 4.53742L12.6542 3.9789H11.9363L11.6052 3.25965L11.3227 3.9789H10.4806L11.1254 4.53742L10.9331 5.29747ZM8.42767 6.96131L7.75463 7.33528L7.94685 6.57523L7.30213 6.01671H8.14422L8.42665 5.29747L8.75782 6.01671H9.47568L8.91164 6.57523L9.18285 7.33528L8.42767 6.96131ZM11.6062 6.96131L10.9331 7.33528L11.1254 6.57523L10.4806 6.01671H11.3227L11.6052 5.29747L11.9363 6.01671H12.6542L12.0902 6.57523L12.3614 7.33528L11.6062 6.96131ZM14.5861 6.96131L13.9131 7.33528L14.1053 6.57523L13.4606 6.01671H14.3027L14.5851 5.29747L14.9163 6.01671H15.6341L15.0701 6.57523L15.3413 7.33528L14.5861 6.96131ZM13.9131 5.29747L14.5861 4.9235L15.3413 5.29747L15.0701 4.53742L15.6341 3.9789H14.9163L14.5851 3.25965L14.3027 3.9789H13.4606L14.1053 4.53742L13.9131 5.29747ZM16.9124 7.33528L17.5855 6.96131L18.3407 7.33528L18.0695 6.57523L18.6335 6.01671H17.9156L17.5845 5.29747L17.302 6.01671H16.4599L17.1047 6.57523L16.9124 7.33528ZM17.5855 4.9235L16.9124 5.29747L17.1047 4.53742L16.4599 3.9789H17.302L17.5845 3.25965L17.9156 3.9789H18.6335L18.0695 4.53742L18.3407 5.29747L17.5855 4.9235ZM16.8676 3.38058L17.5406 3.00662L18.2958 3.38058L18.0246 2.62053L18.5886 2.06202H17.8708L17.5396 1.34277L17.2572 2.06202H16.4151L17.0598 2.62053L16.8676 3.38058ZM20.6157 6.96131L19.9426 7.33528L20.1349 6.57523L19.4902 6.01671H20.3322L20.6147 5.29747L20.9458 6.01671H21.6637L21.0997 6.57523L21.3709 7.33528L20.6157 6.96131ZM19.9426 5.29747L20.6157 4.9235L21.3709 5.29747L21.0997 4.53742L21.6637 3.9789H20.9458L20.6147 3.25965L20.3322 3.9789H19.4902L20.1349 4.53742L19.9426 5.29747ZM20.5708 3.00662L19.8978 3.38058L20.09 2.62053L19.4453 2.06202H20.2874L20.5698 1.34277L20.901 2.06202H21.6188L21.0548 2.62053L21.326 3.38058L20.5708 3.00662ZM5.88491 8.24087C5.88491 8.24087 3.46906 7.58564 3.51455 5.16215C3.56004 2.73867 6 2.10946 6 2.10946C5.00303 1.73192 2.05515 2.23852 2.00073 5.13758C1.94631 8.03664 4.95593 8.60776 5.88491 8.24087Z" fill="#F7FCFF"/>
</g>
</svg>
