<svg width="40" height="40" viewBox="0 0 40 40" fill="none" xmlns="http://www.w3.org/2000/svg">
<path fill-rule="evenodd" clip-rule="evenodd" d="M14.882 7.45006C12.7633 7.21326 10.5701 7.21326 8.45143 7.45006C7.93662 7.5076 7.53062 7.91525 7.47272 8.41034C7.21971 10.5736 7.21971 12.7589 7.47272 14.9222C7.53062 15.4173 7.93662 15.8249 8.45144 15.8824C10.5701 16.1192 12.7633 16.1192 14.882 15.8824C15.3968 15.8249 15.8028 15.4173 15.8607 14.9222C16.1137 12.7589 16.1137 10.5736 15.8607 8.41034C15.8028 7.91525 15.3968 7.5076 14.882 7.45006ZM8.17375 4.96553C10.477 4.70811 12.8564 4.70811 15.1597 4.96553C16.8111 5.1501 18.1485 6.45007 18.3438 8.11992C18.6194 10.4761 18.6194 12.8564 18.3438 15.2126C18.1485 16.8824 16.8111 18.1824 15.1597 18.367C12.8564 18.6244 10.477 18.6244 8.17375 18.367C6.52235 18.1824 5.18495 16.8824 4.98964 15.2126C4.71406 12.8564 4.71406 10.4761 4.98964 8.11992C5.18495 6.45007 6.52235 5.1501 8.17375 4.96553Z" fill="#727272"/>
<path fill-rule="evenodd" clip-rule="evenodd" d="M14.882 24.1167C12.7633 23.8799 10.5701 23.8799 8.45143 24.1167C7.93662 24.1743 7.53062 24.5819 7.47272 25.077C7.21971 27.2402 7.21971 29.4256 7.47272 31.5888C7.53062 32.0839 7.93662 32.4916 8.45144 32.5491C10.5701 32.7859 12.7633 32.7859 14.882 32.5491C15.3968 32.4916 15.8028 32.0839 15.8607 31.5888C16.1137 29.4256 16.1137 27.2402 15.8607 25.077C15.8028 24.5819 15.3968 24.1743 14.882 24.1167ZM8.17375 21.6322C10.477 21.3748 12.8564 21.3748 15.1597 21.6322C16.8111 21.8168 18.1485 23.1167 18.3438 24.7866C18.6194 27.1428 18.6194 29.5231 18.3438 31.8792C18.1485 33.5491 16.8111 34.8491 15.1597 35.0336C12.8564 35.2911 10.477 35.2911 8.17375 35.0336C6.52235 34.8491 5.18495 33.5491 4.98964 31.8792C4.71406 29.5231 4.71406 27.1428 4.98964 24.7866C5.18495 23.1167 6.52235 21.8168 8.17375 21.6322Z" fill="#727272"/>
<path fill-rule="evenodd" clip-rule="evenodd" d="M31.5487 7.45006C29.43 7.21326 27.2368 7.21326 25.1181 7.45006C24.6033 7.5076 24.1973 7.91525 24.1394 8.41034C23.8864 10.5736 23.8864 12.7589 24.1394 14.9222C24.1973 15.4173 24.6033 15.8249 25.1181 15.8824C27.2368 16.1192 29.43 16.1192 31.5487 15.8824C32.0635 15.8249 32.4695 15.4173 32.5274 14.9222C32.7804 12.7589 32.7804 10.5736 32.5274 8.41034C32.4695 7.91525 32.0635 7.5076 31.5487 7.45006ZM24.8404 4.96553C27.1437 4.70811 29.5231 4.70811 31.8264 4.96553C33.4778 5.1501 34.8152 6.45007 35.0105 8.11992C35.286 10.4761 35.286 12.8564 35.0105 15.2126C34.8152 16.8824 33.4778 18.1824 31.8264 18.367C29.5231 18.6244 27.1437 18.6244 24.8404 18.367C23.189 18.1824 21.8516 16.8824 21.6563 15.2126C21.3807 12.8564 21.3807 10.4761 21.6563 8.11992C21.8516 6.45007 23.189 5.1501 24.8404 4.96553Z" fill="#727272"/>
<path fill-rule="evenodd" clip-rule="evenodd" d="M31.5487 24.1167C29.43 23.8799 27.2368 23.8799 25.1181 24.1167C24.6033 24.1743 24.1973 24.5819 24.1394 25.077C23.8864 27.2402 23.8864 29.4256 24.1394 31.5888C24.1973 32.0839 24.6033 32.4916 25.1181 32.5491C27.2368 32.7859 29.43 32.7859 31.5487 32.5491C32.0635 32.4916 32.4695 32.0839 32.5274 31.5888C32.7804 29.4256 32.7804 27.2402 32.5274 25.077C32.4695 24.5819 32.0635 24.1743 31.5487 24.1167ZM24.8404 21.6322C27.1437 21.3748 29.5231 21.3748 31.8264 21.6322C33.4778 21.8168 34.8152 23.1167 35.0105 24.7866C35.286 27.1428 35.286 29.5231 35.0105 31.8792C34.8152 33.5491 33.4778 34.8491 31.8264 35.0336C29.5231 35.2911 27.1437 35.2911 24.8404 35.0336C23.189 34.8491 21.8516 33.5491 21.6563 31.8792C21.3807 29.5231 21.3807 27.1428 21.6563 24.7866C21.8516 23.1167 23.189 21.8168 24.8404 21.6322Z" fill="#727272"/>
</svg>
