<svg width="40" height="40" viewBox="0 0 40 40" fill="none" xmlns="http://www.w3.org/2000/svg">
<path fill-rule="evenodd" clip-rule="evenodd" d="M8.26207 8.65418C7.57606 10.8777 7.57606 13.2894 8.26207 15.5129C16.0693 16.2653 23.9307 16.2653 31.7379 15.5129C32.4239 13.2894 32.4239 10.8777 31.7379 8.65418C23.9307 7.90173 16.0693 7.90173 8.26207 8.65418ZM7.84792 6.18263C15.93 5.39225 24.07 5.39225 32.1521 6.18263C33.043 6.26976 33.7918 6.88024 34.0654 7.7232C34.9814 10.545 34.9814 13.622 34.0654 16.4439C33.7918 17.2868 33.043 17.8973 32.1521 17.9844C24.07 18.7748 15.93 18.7748 7.84792 17.9844C6.957 17.8973 6.20822 17.2868 5.93457 16.4439C5.01855 13.622 5.01855 10.545 5.93457 7.7232C6.20822 6.88024 6.957 6.26976 7.84792 6.18263Z" fill="url(#paint0_linear_373_3046)"/>
<path fill-rule="evenodd" clip-rule="evenodd" d="M8.26207 24.4875C7.57606 26.711 7.57606 29.1227 8.26207 31.3462C16.0693 32.0986 23.9307 32.0986 31.7379 31.3462C32.4239 29.1227 32.4239 26.711 31.7379 24.4875C23.9307 23.7351 16.0693 23.7351 8.26207 24.4875ZM7.84792 22.016C15.93 21.2256 24.07 21.2256 32.1521 22.016C33.043 22.1031 33.7918 22.7136 34.0654 23.5565C34.9814 26.3783 34.9814 29.4554 34.0654 32.2772C33.7918 33.1201 33.043 33.7306 32.1521 33.8178C24.07 34.6081 15.93 34.6081 7.84792 33.8178C6.957 33.7306 6.20822 33.1201 5.93457 32.2772C5.01855 29.4554 5.01855 26.3783 5.93457 23.5565C6.20822 22.7136 6.957 22.1031 7.84792 22.016Z" fill="url(#paint1_linear_373_3046)"/>
<defs>
<linearGradient id="paint0_linear_373_3046" x1="20" y1="5.58984" x2="20" y2="34.4105" gradientUnits="userSpaceOnUse">
<stop stop-color="#02851A"/>
<stop offset="1" stop-color="#06C129"/>
</linearGradient>
<linearGradient id="paint1_linear_373_3046" x1="20" y1="5.58984" x2="20" y2="34.4105" gradientUnits="userSpaceOnUse">
<stop stop-color="#02851A"/>
<stop offset="1" stop-color="#06C129"/>
</linearGradient>
</defs>
</svg>
